<svg width="18" height="16" viewBox="0 0 18 16" fill="none" xmlns="http://www.w3.org/2000/svg">
<path d="M13.1484 0.0976562C11.6511 0.0976562 10.3385 0.765308 9.35258 2.02847C9.2211 2.19694 9.10389 2.36548 9 2.52871C8.89611 2.36545 8.7789 2.19694 8.64742 2.02847C7.66146 0.765308 6.34887 0.0976562 4.85156 0.0976562C2.02303 0.0976562 0 2.46603 0 5.30795C0 8.55755 2.66333 11.6202 8.63568 15.2382C8.74765 15.306 8.87382 15.3399 9 15.3399C9.12618 15.3399 9.25235 15.306 9.36432 15.2382C15.3367 11.6202 18 8.55759 18 5.30799C18 2.46754 15.9786 0.0976562 13.1484 0.0976562ZM14.736 9.35426C13.4926 10.7416 11.6137 12.2024 9 13.8129C6.38631 12.2024 4.50738 10.7416 3.26401 9.3543C2.01393 7.95944 1.40625 6.63587 1.40625 5.30799C1.40625 3.26175 2.78909 1.50391 4.85156 1.50391C5.90189 1.50391 6.79746 1.96059 7.51342 2.86129C8.0859 3.58161 8.32711 4.32541 8.3288 4.33072C8.42038 4.62445 8.69235 4.82452 9.00004 4.82452C9.30772 4.82452 9.57969 4.62448 9.67127 4.33072C9.67349 4.32361 9.90745 3.60302 10.4611 2.8937C11.181 1.97148 12.0851 1.50387 13.1484 1.50387C15.2131 1.50387 16.5938 3.26341 16.5938 5.30795C16.5938 6.63584 15.9861 7.9594 14.736 9.35426Z" fill="#A5A5A5"/>
</svg>
