<svg width="16" height="15" viewBox="0 0 16 15" fill="none" xmlns="http://www.w3.org/2000/svg">
<path d="M11.6875 0.475586C10.3566 0.475586 9.18981 1.06905 8.31341 2.19187C8.19653 2.34162 8.09234 2.49143 8 2.63652C7.90766 2.4914 7.80347 2.34162 7.68659 2.19187C6.81019 1.06905 5.64344 0.475586 4.3125 0.475586C1.79825 0.475586 0 2.58081 0 5.10696C0 7.99549 2.36741 10.7178 7.67616 13.9338C7.77569 13.9941 7.88784 14.0243 8 14.0243C8.11216 14.0243 8.22431 13.9941 8.32384 13.9339C13.6326 10.7178 16 7.99552 16 5.10699C16 2.58215 14.2032 0.475586 11.6875 0.475586ZM13.0987 8.70368C11.9934 9.93687 10.3233 11.2354 8 12.6669C5.67672 11.2354 4.00656 9.93687 2.90134 8.70371C1.79016 7.46384 1.25 6.28734 1.25 5.10699C1.25 3.28812 2.47919 1.72559 4.3125 1.72559C5.24613 1.72559 6.04219 2.13152 6.67859 2.93215C7.18747 3.57243 7.40188 4.23359 7.40338 4.2383C7.48478 4.4994 7.72653 4.67724 8.00003 4.67724C8.27353 4.67724 8.51528 4.49943 8.59669 4.2383C8.59866 4.23199 8.80663 3.59146 9.29878 2.96096C9.93863 2.14121 10.7423 1.72555 11.6875 1.72555C13.5227 1.72555 14.75 3.28959 14.75 5.10696C14.75 6.2873 14.2098 7.4638 13.0987 8.70368Z" fill="#666666"/>
</svg>
